<svg width="28" height="16" viewBox="0 0 28 16" fill="none" xmlns="http://www.w3.org/2000/svg">
<g clip-path="url(#clip0_45_15)">
<path d="M22.75 5.5C21.788 5.5 20.8885 5.7645 20.112 6.218L16.7115 1H21.511C21.5045 1.249 21.4465 1.6655 21.1615 1.993C20.868 2.3295 20.3935 2.5 19.75 2.5C19.6837 2.5 19.6201 2.52634 19.5732 2.57322C19.5263 2.62011 19.5 2.6837 19.5 2.75C19.5 2.8163 19.5263 2.87989 19.5732 2.92678C19.6201 2.97366 19.6837 3 19.75 3C20.5445 3 21.146 2.772 21.538 2.322C22.1195 1.654 22.003 0.754 21.9975 0.716C21.9893 0.656177 21.9597 0.601348 21.9142 0.561644C21.8687 0.521939 21.8104 0.500043 21.75 0.5H16.25C16.2048 0.499683 16.1604 0.511679 16.1215 0.5347C16.0826 0.55772 16.0506 0.590898 16.0292 0.630673C16.0077 0.670448 15.9974 0.715321 15.9995 0.760478C16.0016 0.805636 16.0159 0.849373 16.041 0.887L17.4565 3.059H9.524L7.9825 0.5H10.75C10.8163 0.5 10.8799 0.473661 10.9268 0.426777C10.9737 0.379893 11 0.316304 11 0.25C11 0.183696 10.9737 0.120107 10.9268 0.0732233C10.8799 0.0263392 10.8163 0 10.75 0L6.25 0C6.1837 0 6.12011 0.0263392 6.07322 0.0732233C6.02634 0.120107 6 0.183696 6 0.25C6 0.316304 6.02634 0.379893 6.07322 0.426777C6.12011 0.473661 6.1837 0.5 6.25 0.5H7.407C7.412 0.5115 7.413 0.524 7.4195 0.535L9.1255 3.366L7.5985 6.061C6.87053 5.69232 6.06601 5.50014 5.25 5.5C2.355 5.5 0 7.855 0 10.75C0 13.645 2.355 16 5.25 16C8.044 16 10.3285 13.8045 10.46 11H16C16.0145 11.2895 15.952 11.684 15.678 11.9945C15.382 12.33 14.9015 12.5 14.25 12.5C14.1837 12.5 14.1201 12.5263 14.0732 12.5732C14.0263 12.6201 14 12.6837 14 12.75C14 12.8163 14.0263 12.8799 14.0732 12.9268C14.1201 12.9737 14.1837 13 14.25 13C15.054 13 15.662 12.7715 16.057 12.321C16.628 11.669 16.5205 10.803 16.516 10.7665C16.5081 10.7063 16.4786 10.6511 16.433 10.611C16.3873 10.571 16.3287 10.549 16.268 10.549H14.304L17.8275 3.629L19.6925 6.491C18.3675 7.4445 17.5 8.996 17.5 10.75C17.5 13.645 19.855 16 22.75 16C25.645 16 28 13.645 28 10.75C28 7.855 25.645 5.5 22.75 5.5ZM17.3025 3.5L13.8785 10.284L9.8255 3.5H17.3025ZM9.4215 3.8575L13.454 10.549H10.49C10.457 9.69538 10.216 8.86274 9.78802 8.12345C9.35999 7.38416 8.75787 6.76061 8.034 6.307L9.4215 3.8575ZM9.99 10.549H5.6305L7.7875 6.7415C8.43439 7.15156 8.97253 7.71197 9.35604 8.37494C9.73954 9.03792 9.95705 9.7838 9.99 10.549ZM5.25 15.5C2.631 15.5 0.5 13.369 0.5 10.75C0.5 8.131 2.631 6 5.25 6C6.005 6 6.717 6.182 7.352 6.4965L4.984 10.6755C4.96247 10.7135 4.95128 10.7565 4.95154 10.8002C4.95181 10.8439 4.96351 10.8867 4.9855 10.9245C5.03 11.001 5.1125 11.0485 5.2015 10.9995H9.985C9.8295 13.5285 7.7685 15.5 5.25 15.5ZM22.75 15.5C20.131 15.5 18 13.369 18 10.75C18 9.1715 18.777 7.774 19.966 6.91L22.5895 10.9355C22.6074 10.963 22.6306 10.9867 22.6577 11.0053C22.6848 11.0239 22.7152 11.0369 22.7474 11.0437C22.7795 11.0505 22.8127 11.0508 22.8449 11.0448C22.8772 11.0388 22.908 11.0264 22.9355 11.0085C22.963 10.9906 22.9867 10.9674 23.0053 10.9403C23.0239 10.9132 23.0369 10.8828 23.0437 10.8506C23.0505 10.8185 23.0508 10.7853 23.0448 10.7531C23.0388 10.7208 23.0264 10.69 23.0085 10.6625L20.385 6.637C21.1032 6.21938 21.9192 5.99958 22.75 6C25.369 6 27.5 8.131 27.5 10.75C27.5 13.369 25.369 15.5 22.75 15.5Z" fill="#FFD233"/>
</g>
<defs>
<clipPath id="clip0_45_15">
<rect width="28" height="16" fill="white"/>
</clipPath>
</defs>
</svg>
