<svg width="19" height="16" viewBox="0 0 19 16" fill="none" xmlns="http://www.w3.org/2000/svg">
<path d="M0.815585 0.745833V0.25C0.686691 0.25 0.563076 0.30224 0.471935 0.395226C0.380793 0.488213 0.32959 0.61433 0.32959 0.745833H0.815585ZM18.3114 0.745833H18.7974C18.7974 0.61433 18.7462 0.488213 18.6551 0.395226C18.5639 0.30224 18.4403 0.25 18.3114 0.25V0.745833ZM0.815585 1.24167H18.3114V0.25H0.815585V1.24167ZM17.8254 0.745833V12.6458H18.7974V0.745833H17.8254ZM16.3674 14.1333H2.75957V15.125H16.3674V14.1333ZM1.30158 12.6458V0.745833H0.32959V12.6458H1.30158ZM2.75957 14.1333C2.37288 14.1333 2.00204 13.9766 1.72861 13.6977C1.45519 13.4187 1.30158 13.0403 1.30158 12.6458H0.32959C0.32959 13.3033 0.585605 13.9339 1.04131 14.3989C1.49702 14.8638 2.1151 15.125 2.75957 15.125V14.1333ZM17.8254 12.6458C17.8254 13.0403 17.6718 13.4187 17.3984 13.6977C17.125 13.9766 16.7541 14.1333 16.3674 14.1333V15.125C17.0119 15.125 17.63 14.8638 18.0857 14.3989C18.5414 13.9339 18.7974 13.3033 18.7974 12.6458H17.8254Z" fill="#000080"/>
<path d="M0.81543 0.74585L9.56335 9.67085L18.3113 0.74585" stroke="#000080" stroke-linecap="round" stroke-linejoin="round"/>
</svg>
