<svg width="14" height="23" viewBox="0 0 14 23" fill="none" xmlns="http://www.w3.org/2000/svg">
<g clip-path="url(#clip0_44_19)">
<path d="M7 20.8438C10.6458 15.8125 13.5625 11.5 13.5625 8.625C13.5625 6.90938 12.8711 5.26403 11.6404 4.0509C10.4097 2.83778 8.74048 2.15625 7 2.15625C5.25952 2.15625 3.59032 2.83778 2.35961 4.0509C1.1289 5.26403 0.4375 6.90938 0.4375 8.625C0.4375 11.5 3.35417 15.8125 7 20.8438Z" stroke="#000080"/>
<path d="M9.91683 8.625C9.91683 9.3875 9.60954 10.1188 9.06256 10.6579C8.51558 11.1971 7.77371 11.5 7.00016 11.5C6.22661 11.5 5.48475 11.1971 4.93777 10.6579C4.39079 10.1188 4.0835 9.3875 4.0835 8.625C4.0835 7.8625 4.39079 7.13123 4.93777 6.59207C5.48475 6.0529 6.22661 5.75 7.00016 5.75C7.77371 5.75 8.51558 6.0529 9.06256 6.59207C9.60954 7.13123 9.91683 7.8625 9.91683 8.625Z" stroke="#000080"/>
</g>
<defs>
<clipPath id="clip0_44_19">
<rect width="14" height="23" fill="white"/>
</clipPath>
</defs>
</svg>
